<svg width="138" height="18" viewBox="0 0 138 18" fill="none" xmlns="http://www.w3.org/2000/svg">
<path d="M59.912 11.7537H68.9744L64.1825 4.04426L55.3877 17.9833H51.385L62.0825 1.23953C62.5476 0.563016 63.3227 0.154297 64.1825 0.154297C65.014 0.154297 65.7892 0.548929 66.2402 1.21135L76.9799 17.9833H72.9772L71.0886 14.8685H61.9133L59.912 11.7537ZM101.49 14.8685V0.323426H98.0929V16.292C98.0929 16.7289 98.262 17.1518 98.5862 17.4759C98.9103 17.8001 99.3472 17.9833 99.8264 17.9833H115.316L117.317 14.8685H101.49ZM45.2964 12.2611C48.5945 12.2611 51.2724 9.59733 51.2724 6.29931C51.2724 3.0013 48.5945 0.323426 45.2964 0.323426H30.437V17.9833H33.8323V3.43822H45.0709C46.6495 3.43822 47.9179 4.72077 47.9179 6.29931C47.9179 7.87785 46.6495 9.16042 45.0709 9.16042L35.4954 9.14632L45.6346 17.9833H50.5676L43.7461 12.2611H45.2964ZM9.53553 17.9833C4.66034 17.9833 0.704102 14.037 0.704102 9.16042C0.704102 4.28386 4.66034 0.323426 9.53553 0.323426H19.8002C24.6767 0.323426 28.6301 4.28386 28.6301 9.16042C28.6301 14.037 24.6767 17.9833 19.8002 17.9833H9.53553ZM19.5719 14.8685C22.7304 14.8685 25.2885 12.3175 25.2885 9.16042C25.2885 6.00334 22.7304 3.43822 19.5719 3.43822H9.7624C6.60532 3.43822 4.04578 6.00334 4.04578 9.16042C4.04578 12.3175 6.60532 14.8685 9.7624 14.8685H19.5719ZM84.0692 17.9833C79.1926 17.9833 75.2323 14.037 75.2323 9.16042C75.2323 4.28386 79.1926 0.323426 84.0692 0.323426H96.2606L94.2733 3.43822H84.2947C81.1376 3.43822 78.5726 6.00334 78.5726 9.16042C78.5726 12.3175 81.1376 14.8685 84.2947 14.8685H96.5424L94.5411 17.9833H84.0692ZM125.604 14.8685C122.997 14.8685 120.784 13.1208 120.108 10.7108H134.625L136.626 7.59597H120.108C120.784 5.19998 122.997 3.43822 125.604 3.43822H135.569L137.584 0.323426H125.379C120.502 0.323426 116.542 4.28386 116.542 9.16042C116.542 14.037 120.502 17.9833 125.379 17.9833H135.851L137.852 14.8685H125.604Z" fill="#EA1B22"/>
</svg>
