<svg width="138" height="29" viewBox="0 0 138 29" fill="none" xmlns="http://www.w3.org/2000/svg">
<path d="M25.2642 15.069L25.2824 15.0704L27.1781 15.2686C27.3112 15.2829 27.4334 15.3479 27.5197 15.4494L27.5338 15.4667L27.5158 15.4756C27.6044 15.5875 27.6435 15.7306 27.6238 15.8719C27.2097 19.1647 25.649 22.2063 23.2157 24.463C20.691 26.8047 17.3747 28.1058 13.9311 28.1058C12.2586 28.1085 10.6003 27.8005 9.04064 27.1979L8.95567 27.1647C8.82801 27.1175 8.72544 27.0204 8.67114 26.8964L8.66297 26.8765C8.6098 26.753 8.60684 26.6139 8.65411 26.4887L9.40236 24.6632C9.50375 24.4051 9.79109 24.2751 10.0506 24.3666L10.0678 24.373C13.8925 25.8498 18.2243 25.018 21.23 22.2297C23.1432 20.4718 24.3769 18.0968 24.7151 15.5207C24.7509 15.2547 24.9817 15.0611 25.2461 15.0682L25.2642 15.069ZM70.0348 7.32132C71.6512 7.32132 72.9152 7.81448 73.7225 8.76159L73.7496 8.79369V7.99221C73.7604 7.7685 73.9336 7.58769 74.1547 7.56585L74.1728 7.56443H76.3296C76.5515 7.57977 76.728 7.75444 76.7472 7.97428L76.7484 7.99221V19.9649C76.8181 21.6531 76.2992 23.3132 75.2805 24.6612C74.1187 26.0751 72.3537 26.791 70.0348 26.791C66.8109 26.791 64.2668 24.7513 63.8481 21.8379C63.8273 21.6277 63.9554 21.4321 64.1545 21.3661L64.1723 21.3607L66.2796 20.8654C66.2905 20.8629 66.3016 20.8608 66.3127 20.8592C66.544 20.8253 66.7589 20.9853 66.7928 21.2166C66.9853 22.8508 68.3898 24.07 70.0348 24.0308C72.5266 24.0308 73.699 22.7642 73.7222 20.1175L73.7225 20.0369V18.9878C72.7884 20.0354 71.4376 20.6143 70.0348 20.5682C66.4506 20.5682 63.8526 17.7856 63.8526 13.9582C63.8198 12.2363 64.4261 10.5631 65.5546 9.26193C66.7008 8.00271 68.3322 7.29606 70.0348 7.32132ZM5.12438 21.8829L5.1511 21.8827L5.17792 21.883C6.03825 21.8928 6.73095 22.5885 6.7403 23.4457L6.74037 23.4725C6.74037 23.4814 6.74027 23.4903 6.74011 23.4992C6.72513 24.3769 6.00157 25.0764 5.12386 25.0615C4.24615 25.0465 3.54676 24.323 3.56159 23.4452C3.57627 22.5854 4.27089 21.8967 5.12438 21.8829ZM107.369 7.15472L107.48 7.15554C111.333 7.20875 113.72 9.89069 113.72 14.1834C113.72 14.4105 113.708 14.6375 113.684 14.8633C113.664 15.071 113.494 15.2311 113.288 15.241L113.27 15.2415H104.111C104.167 17.165 105.758 18.687 107.682 18.659C109.173 18.7528 110.533 17.8043 110.96 16.3717C111.038 16.1661 111.26 16.0554 111.469 16.1144L111.486 16.1196L113.314 16.7634C113.416 16.7959 113.498 16.8676 113.545 16.9617L113.553 16.9796C113.603 17.0788 113.612 17.194 113.576 17.2993C112.727 19.8133 110.334 21.4767 107.682 21.3967C105.943 21.414 104.269 20.7346 103.035 19.5101C101.688 18.0925 100.969 16.1918 101.04 14.2374C101.04 9.84666 104.196 7.20786 107.278 7.15553L107.369 7.15472ZM55.5451 7.15473H55.5496C59.4715 7.15473 61.9075 9.84733 61.9075 14.1834C61.9071 14.4105 61.8951 14.6375 61.8714 14.8633C61.8532 15.0721 61.6822 15.2334 61.4745 15.2412L61.4571 15.2415H52.2987C52.3551 17.1704 53.9535 18.6945 55.8828 18.6591C57.3753 18.7545 58.7353 17.8054 59.1608 16.3717C59.237 16.1644 59.4605 16.053 59.6706 16.1142L59.6876 16.1196L61.5157 16.7634C61.6226 16.798 61.7094 16.8767 61.7543 16.9796C61.7971 17.0819 61.7971 17.197 61.7543 17.2993C60.9059 19.8117 58.5155 21.4747 55.8648 21.3967C54.1229 21.4164 52.4458 20.7369 51.209 19.5101C49.8635 18.0914 49.1447 16.1915 49.2143 14.2374C49.2143 9.80231 52.4337 7.15473 55.5451 7.15473ZM41.6768 7.15018C43.4373 7.15018 44.8602 7.57795 45.9138 8.4199C46.6263 8.98769 47.1543 9.75388 47.4312 10.6218L47.4321 10.6253C47.4682 10.7749 47.3803 10.9256 47.2344 10.969L47.2196 10.9729L45.0358 11.6934C44.9389 11.7318 44.831 11.7318 44.7341 11.6934C44.6514 11.6548 44.5892 11.5827 44.563 11.4953L44.5514 11.4523C44.3524 10.7413 43.7022 9.59966 41.6768 9.59966C40.2359 9.59966 39.3714 10.4282 39.3714 11.2297L39.3717 11.2614C39.3826 11.7826 39.6659 12.4367 40.9086 12.6854L40.9474 12.693L43.3518 13.1432C46.0085 13.6782 47.5399 15.1222 47.5703 17.1345L47.5708 17.1957L47.5618 17.1598L47.5612 17.2208C47.5226 19.238 45.5714 21.3607 41.9784 21.3607C37.7684 21.3607 36.116 18.9788 35.8098 17.574C35.7898 17.427 35.8794 17.2882 36.0197 17.245L36.0349 17.2407L38.2863 16.5383C38.3265 16.5318 38.3676 16.5318 38.4078 16.5383C38.4651 16.5373 38.5217 16.5494 38.5733 16.5737L38.5924 16.5833C38.6751 16.623 38.7361 16.6972 38.759 16.7859C39.0427 18.1368 40.2629 18.9428 42.019 18.9428C43.6535 18.9428 44.3964 18.0872 44.3964 17.3128C44.3964 16.5468 43.7489 15.979 42.6327 15.7445L42.5953 15.7368L40.0693 15.246C37.7144 14.8003 36.2466 13.3369 36.2466 11.4322C36.2466 9.11334 38.7365 7.15018 41.6768 7.15018ZM132.487 3.39946H134.455C134.687 3.4134 134.869 3.6017 134.878 3.83233L134.878 3.84971V7.54644H137.246C137.477 7.56263 137.656 7.7501 137.665 7.979L137.666 7.99669V9.95986L137.666 9.97695C137.659 10.1971 137.484 10.3758 137.264 10.3871L137.246 10.3876H134.878V16.9571C134.878 18.0467 135.31 18.497 136.422 18.497C136.647 18.4931 136.873 18.476 137.096 18.4458L137.179 18.4339C137.302 18.4131 137.427 18.4478 137.521 18.5285C137.606 18.6074 137.657 18.7158 137.665 18.831L137.666 18.8527V20.7033C137.667 20.8919 137.544 21.0589 137.364 21.1131C136.845 21.2582 136.31 21.3311 135.771 21.3298L135.698 21.3292C133.348 21.3292 131.882 19.8331 131.853 17.4134L131.853 17.3398V10.4147H129.804C129.58 10.4015 129.401 10.2262 129.382 10.0049L129.38 9.98688V8.01468C129.38 7.78201 129.557 7.58838 129.786 7.5658L129.804 7.56443L130.355 7.56436L130.413 7.56332C131.056 7.54485 132.044 7.28426 132.064 5.84906L132.064 5.80384V3.84971C132.063 3.61704 132.241 3.4234 132.47 3.40083L132.487 3.39946ZM94.2437 7.15273L94.2952 7.15473H94.2906C96.6088 7.15473 98.9489 8.76986 98.9955 12.2973L98.9962 12.4048V20.7438C98.9857 20.9676 98.8119 21.1483 98.591 21.1702L98.573 21.1716H96.416C96.1926 21.1584 96.014 20.9832 95.994 20.7619L95.9927 20.7438V12.675L95.9923 12.6129C95.9792 11.5848 95.6298 9.93282 93.5121 9.93282C91.9471 9.93282 90.8324 11.1509 90.8102 12.9228L90.8099 12.9767V20.7438C90.7994 20.9676 90.6263 21.1483 90.4047 21.1702L90.3867 21.1716H88.2034C87.9793 21.1584 87.8006 20.9832 87.7814 20.7619L87.7802 20.7438V12.675L87.7798 12.6129C87.7667 11.5848 87.4172 9.93282 85.2988 9.93282C83.6718 9.93282 82.5701 11.142 82.5482 12.9488L82.5479 13.0037V20.7438C82.5366 20.9676 82.3635 21.1483 82.1427 21.1702L82.1247 21.1716H79.9677C79.7458 21.1563 79.5694 20.9815 79.5503 20.7618L79.5491 20.7438V7.96518C79.5596 7.74304 79.7305 7.56287 79.9498 7.53899L79.9677 7.5374H82.0436C82.2669 7.55056 82.4463 7.72583 82.4656 7.94713L82.4668 7.96518V8.73515C83.4005 7.7114 84.7281 7.1362 86.1136 7.15473C87.7184 7.1077 89.2159 7.95614 89.9998 9.35646C90.9333 7.93008 92.5428 7.09561 94.2437 7.15273ZM126.539 8.74411C127.366 9.83269 127.792 11.1716 127.748 12.5362L127.746 12.5939V20.7438C127.735 20.966 127.564 21.1462 127.345 21.17L127.327 21.1716H125.144C124.92 21.1584 124.741 20.9832 124.721 20.7619L124.72 20.7438V13.0307C124.72 11.0135 123.77 9.98688 121.969 9.98688C121.173 9.96117 120.413 10.3156 119.92 10.9414C119.443 11.6284 119.197 12.4483 119.216 13.2833L119.218 13.3324V20.7438C119.207 20.9676 119.034 21.1483 118.813 21.1702L118.795 21.1716H116.615C116.392 21.1584 116.213 20.9832 116.193 20.7619L116.192 20.7438V7.95614C116.203 7.73243 116.376 7.5517 116.597 7.52979L116.615 7.52837H118.745C118.967 7.54371 119.144 7.71844 119.163 7.93822L119.164 7.95614V8.85671C120.077 7.74986 121.448 7.12268 122.883 7.15473C124.281 7.09496 125.629 7.68105 126.539 8.74411ZM1.0399 15.6153H16.5427C16.8276 15.6177 17.0578 15.8458 17.0649 16.1285L17.0651 16.1466V18.0873C17.0675 18.3722 16.8432 18.6062 16.5608 18.6181L16.5427 18.6186H1.0399C0.754962 18.6161 0.524892 18.388 0.517578 18.1053V18.0872V16.1465V16.1284C0.524739 15.8519 0.745137 15.6276 1.0214 15.6158L1.0399 15.6153ZM70.4085 10.0139C68.2833 10.0139 66.9325 11.5268 66.9325 13.9582C66.9325 16.3897 68.2652 17.8981 70.4085 17.8981C72.4527 17.8981 73.8306 16.3132 73.8306 13.9582C73.8306 11.5988 72.4527 10.0139 70.4085 10.0139ZM52.3945 12.6447L52.3887 12.693H58.796C58.6401 10.9813 57.4337 9.91385 55.627 9.89268L55.5721 9.89235C53.9801 9.86647 52.6245 11.0308 52.4009 12.5971L52.3945 12.6447ZM104.225 12.6447L104.219 12.693H110.627C110.471 10.9813 109.264 9.91385 107.458 9.89268L107.403 9.89235C105.811 9.86647 104.455 11.0308 104.231 12.5971L104.225 12.6447ZM18.4834 0.805868C18.6176 0.854291 18.7264 0.954998 18.785 1.08505C18.8389 1.21634 18.8389 1.36354 18.785 1.49475L18.1097 3.29589C18.0161 3.56295 17.724 3.7039 17.4568 3.61107C13.9184 2.37633 9.99224 3.07788 7.10054 5.46164C5.2984 6.97008 4.01879 9.00932 3.44436 11.2881C3.38489 11.5183 3.17768 11.6792 2.94005 11.6799H2.82297L0.967844 11.2341C0.829527 11.2016 0.710748 11.1137 0.639156 10.9909H0.630121C0.555054 10.8683 0.533893 10.7201 0.571658 10.5812C1.30835 7.66414 2.95673 5.05827 5.27693 3.14275C8.96633 0.105398 13.9757 -0.781039 18.4834 0.805868ZM11.6168 8.58656H27.1195C27.3974 8.58883 27.6245 8.80617 27.6411 9.0814L27.6419 9.09983V11.0405C27.6442 11.3255 27.4202 11.5595 27.1376 11.5714L27.1195 11.5719H11.6168C11.3337 11.567 11.1062 11.3397 11.0991 11.0589L11.0989 11.0405V9.11782C11.0964 8.83475 11.3178 8.60162 11.5984 8.58719L11.6168 8.58656ZM22.3787 2.66545L22.4054 2.66524L22.4323 2.66547C23.2926 2.67533 23.9853 3.37099 23.9946 4.22809L23.9947 4.25493C23.9947 4.26389 23.9946 4.27284 23.9944 4.28173C23.9795 5.15944 23.2559 5.85882 22.3782 5.84392C21.5005 5.82901 20.8011 5.10538 20.816 4.22774C20.8306 3.36787 21.5253 2.67919 22.3787 2.66545Z" fill="#4FB58B"/>
</svg>
