<svg width="171" height="27" viewBox="0 0 171 27" fill="none" xmlns="http://www.w3.org/2000/svg">
<path d="M24.009 26.9993V20.0723H16.4655C14.4141 20.0723 12.5138 21.1491 11.4631 22.9073L9.01758 26.9993H24.009Z" fill="#63D2F9"/>
<path d="M0 0.388672V7.31568H19.8689L24.0088 0.388672H0Z" fill="#4E5EE4"/>
<path d="M9.50865 11.2148L0.0214844 27.0001H8.10433L19.4493 8.11523H14.9859C12.7409 8.11523 10.661 9.29225 9.50865 11.2148Z" fill="#63B0F9"/>
<path d="M41.2056 20.3516C37.1412 20.3516 34.1504 17.3972 34.1504 13.4327C34.1504 9.50628 37.1604 6.51382 41.2248 6.51382C45.2892 6.51382 48.2991 9.5444 48.2991 13.4327C48.2991 17.3591 45.27 20.3516 41.2056 20.3516ZM41.2248 17.9309C43.7938 17.9309 45.6343 16.0249 45.6343 13.4327C45.6343 10.8786 43.7938 8.93448 41.2248 8.93448C38.6366 8.93448 36.7961 10.8786 36.7961 13.4327C36.7961 16.0249 38.6366 17.9309 41.2248 17.9309ZM51.0208 24.4876V10.0781H53.4748V11.3551H53.609C53.8774 10.9358 54.7976 9.83031 56.6381 9.83031C59.4564 9.83031 61.3927 11.9269 61.3927 15.0528C61.3927 18.1787 59.4755 20.3516 56.7148 20.3516C54.9318 20.3516 53.9732 19.3604 53.6473 18.8077H53.5131V24.4876H51.0208ZM56.1588 18.1025C57.7692 18.1025 58.862 16.8635 58.862 15.0909C58.862 13.2612 57.7692 12.0794 56.1397 12.0794C54.4909 12.0794 53.4556 13.3946 53.4556 15.0909C53.4556 16.9588 54.6059 18.1025 56.1588 18.1025ZM68.5239 20.3516C65.5523 20.3516 63.4434 18.1406 63.4434 15.1481C63.4434 11.9841 65.5714 9.83031 68.5239 9.83031C71.7639 9.83031 73.5277 12.2128 73.5277 15.0338V15.8152H65.859C65.9357 17.3401 66.9901 18.3693 68.6006 18.3693C69.8276 18.3693 70.767 17.7975 71.1121 16.9779H73.4318C72.9334 19.0174 71.1312 20.3516 68.5239 20.3516ZM65.8973 14.0617H71.1504C71.0354 12.7084 69.9809 11.8126 68.5239 11.8126C67.1243 11.8126 66.0507 12.8037 65.8973 14.0617ZM76.211 20.1038V10.0781H78.5883V11.2979H78.7225C79.1251 10.5546 80.1221 9.83031 81.5599 9.83031C83.8222 9.83031 85.2026 11.4123 85.2026 13.5471V20.1038H82.7102V14.1951C82.7102 12.9753 81.9242 12.1557 80.7739 12.1557C79.5661 12.1557 78.7034 13.1087 78.7034 14.3667V20.1038H76.211ZM87.675 20.1038V17.8356L94.6535 9.08696V8.95354H87.9243V6.76161H97.836V9.01072L90.8575 17.7594V17.9119H97.8744V20.1038H87.675ZM104.622 20.3516C101.65 20.3516 99.5416 18.1406 99.5416 15.1481C99.5416 11.9841 101.67 9.83031 104.622 9.83031C107.862 9.83031 109.626 12.2128 109.626 15.0338V15.8152H101.957C102.034 17.3401 103.088 18.3693 104.699 18.3693C105.926 18.3693 106.865 17.7975 107.21 16.9779H109.53C109.032 19.0174 107.229 20.3516 104.622 20.3516ZM101.996 14.0617H107.249C107.134 12.7084 106.079 11.8126 104.622 11.8126C103.223 11.8126 102.149 12.8037 101.996 14.0617ZM112.309 24.4876V10.0781H114.763V11.3551H114.897C115.166 10.9358 116.086 9.83031 117.927 9.83031C120.745 9.83031 122.681 11.9269 122.681 15.0528C122.681 18.1787 120.764 20.3516 118.003 20.3516C116.22 20.3516 115.262 19.3604 114.936 18.8077H114.802V24.4876H112.309ZM117.447 18.1025C119.058 18.1025 120.15 16.8635 120.15 15.0909C120.15 13.2612 119.058 12.0794 117.428 12.0794C115.779 12.0794 114.744 13.3946 114.744 15.0909C114.744 16.9588 115.894 18.1025 117.447 18.1025ZM125.364 24.4876V10.0781H127.818V11.3551H127.953C128.221 10.9358 129.141 9.83031 130.982 9.83031C133.8 9.83031 135.736 11.9269 135.736 15.0528C135.736 18.1787 133.819 20.3516 131.059 20.3516C129.276 20.3516 128.317 19.3604 127.991 18.8077H127.857V24.4876H125.364ZM130.503 18.1025C132.113 18.1025 133.206 16.8635 133.206 15.0909C133.206 13.2612 132.113 12.0794 130.483 12.0794C128.835 12.0794 127.799 13.3946 127.799 15.0909C127.799 16.9588 128.95 18.1025 130.503 18.1025ZM142.868 20.3516C139.896 20.3516 137.787 18.1406 137.787 15.1481C137.787 11.9841 139.915 9.83031 142.868 9.83031C146.108 9.83031 147.871 12.2128 147.871 15.0338V15.8152H140.203C140.279 17.3401 141.334 18.3693 142.944 18.3693C144.171 18.3693 145.111 17.7975 145.456 16.9779H147.776C147.277 19.0174 145.475 20.3516 142.868 20.3516ZM140.241 14.0617H145.494C145.379 12.7084 144.325 11.8126 142.868 11.8126C141.468 11.8126 140.394 12.8037 140.241 14.0617ZM153.009 20.1038C151.245 20.1038 150.248 19.0555 150.248 17.2829V5.80859H152.74V17.0541C152.74 17.626 153.028 17.9309 153.546 17.9309H153.948V20.1038H153.009ZM157.59 8.74387C156.689 8.74387 156.056 8.19113 156.056 7.29529C156.056 6.43758 156.689 5.86577 157.59 5.86577C158.491 5.86577 159.124 6.43758 159.124 7.29529C159.124 8.19113 158.491 8.74387 157.59 8.74387ZM156.344 20.1038V10.0781H158.836V20.1038H156.344ZM161.865 20.1038V10.0781H164.242V11.2979H164.376C164.779 10.5546 165.776 9.83031 167.214 9.83031C169.476 9.83031 170.856 11.4123 170.856 13.5471V20.1038H168.364V14.1951C168.364 12.9753 167.578 12.1557 166.428 12.1557C165.22 12.1557 164.357 13.1087 164.357 14.3667V20.1038H161.865Z" fill="#282846"/>
</svg>
