<svg width="160" height="32" viewBox="0 0 160 32" fill="none" xmlns="http://www.w3.org/2000/svg">
<path d="M24.4466 14.0828C24.0017 14.5374 23.6608 15.086 23.4486 15.6896C23.2363 16.2932 23.1578 16.9369 23.2184 17.5749L23.1973 17.5534C23.2597 18.3043 23.16 19.06 22.9051 19.7677C22.6502 20.4755 22.2463 21.1182 21.7215 21.6511C21.1968 22.184 20.5637 22.5942 19.8667 22.853C19.1697 23.1118 18.4254 23.213 17.6859 23.1497L17.707 23.1711C16.8224 23.0875 15.9339 23.2829 15.1627 23.7308C14.3915 24.1787 13.7751 24.8573 13.3976 25.6739C13.02 26.4905 12.8997 27.4056 13.0531 28.2941C13.2065 29.1827 13.6261 30.0016 14.2545 30.6393C14.8831 31.2768 15.69 31.7021 16.5652 31.857C17.4405 32.012 18.3415 31.8889 19.1454 31.5049C19.9493 31.1209 20.6169 30.4943 21.0574 29.7109C21.4978 28.9273 21.6895 28.025 21.6063 27.1269L21.6287 27.1483C21.5662 26.3974 21.666 25.6417 21.9208 24.9339C22.1757 24.2262 22.5797 23.5834 23.1045 23.0506C23.6293 22.5177 24.2622 22.1076 24.9593 21.8488C25.6563 21.5899 26.4006 21.4887 27.1401 21.5521L27.1178 21.5306C27.8404 21.5966 28.5677 21.4763 29.2324 21.1808C29.897 20.8854 30.4775 20.4244 30.9199 19.8405C31.3623 19.2567 31.6525 18.5689 31.7634 17.8408C31.8744 17.1128 31.8025 16.368 31.5545 15.6757C31.3066 14.9833 30.8905 14.3657 30.3448 13.8802C29.7992 13.3946 29.1417 13.0568 28.4332 12.8979C27.7248 12.739 26.9882 12.7643 26.2919 12.9715C25.5956 13.1786 24.9621 13.5609 24.4501 14.0828H24.4466Z" fill="#979797"/>
<path d="M15.7846 20.3602L15.7623 20.3388C16.3909 20.4031 17.0257 20.3247 17.6207 20.1094C18.2158 19.8942 18.7564 19.5472 19.2032 19.0938C19.6501 18.6404 19.9922 18.0918 20.2046 17.4878C20.4171 16.8837 20.4948 16.2392 20.4319 15.6009L20.4542 15.6223C20.3918 14.8715 20.4915 14.1157 20.7464 13.408C21.0013 12.7003 21.4052 12.0575 21.93 11.5247C22.4548 10.9918 23.0878 10.5816 23.7848 10.3228C24.4818 10.0639 25.2261 9.96268 25.9657 10.0261L25.9433 10.0047C26.828 10.089 27.7168 9.89416 28.4885 9.44682C29.2601 8.99941 29.877 8.32121 30.2551 7.50469C30.6332 6.68818 30.754 5.77312 30.6012 4.88432C30.4483 3.99551 30.029 3.17624 29.4007 2.53824C28.7724 1.90024 27.9656 1.47458 27.0902 1.31932C26.2149 1.16406 25.3137 1.28675 24.5096 1.67067C23.7054 2.05458 23.0375 2.68103 22.5969 3.46456C22.1563 4.24809 21.9645 5.15056 22.0475 6.04887L22.0264 6.02622C22.089 6.77718 21.9895 7.53298 21.7346 8.24082C21.4798 8.94867 21.0758 9.59148 20.551 10.1244C20.0262 10.6574 19.3931 11.0675 18.696 11.3263C17.9989 11.585 17.2545 11.6861 16.515 11.6224L16.5361 11.6451C15.9075 11.5808 15.2727 11.6591 14.6777 11.8745C14.0826 12.0897 13.542 12.4367 13.0952 12.8901C12.6484 13.3435 12.3062 13.8921 12.0938 14.4961C11.8813 15.1003 11.8036 15.7447 11.8665 16.383L11.8454 16.3615C11.9076 17.1124 11.8077 17.868 11.5527 18.5757C11.2978 19.2833 10.8939 19.926 10.3691 20.4588C9.84436 20.9917 9.21145 21.4018 8.51453 21.6607C7.8176 21.9196 7.07344 22.021 6.33395 21.9578L6.35509 21.9792C5.47039 21.8949 4.58161 22.0897 3.80995 22.5371C3.0383 22.9845 2.42135 23.6627 2.04326 24.4792C1.66516 25.2958 1.54433 26.2108 1.69724 27.0996C1.85014 27.9884 2.26935 28.8077 2.89767 29.4457C3.526 30.0837 4.33286 30.5093 5.20819 30.6646C6.08352 30.8198 6.98471 30.6972 7.78885 30.3133C8.59298 29.9294 9.2609 29.3029 9.70148 28.5194C10.1421 27.7359 10.3339 26.8334 10.2509 25.935L10.2732 25.9565C10.2108 25.2056 10.3105 24.4498 10.5654 23.7422C10.8203 23.0344 11.2243 22.3917 11.749 21.8588C12.2738 21.3259 12.9068 20.9157 13.6038 20.6569C14.3008 20.3981 15.0451 20.2969 15.7846 20.3602Z" fill="#979797"/>
<path d="M7.91448 17.9676C8.35952 17.5131 8.70023 16.9645 8.91234 16.3608C9.12443 15.7571 9.20267 15.1135 9.14147 14.4755L9.16378 14.497C9.1013 13.7459 9.20106 12.99 9.45606 12.282C9.71113 11.5741 10.1153 10.9313 10.6403 10.3983C11.1654 9.86538 11.7987 9.45531 12.496 9.19665C13.1934 8.93798 13.9378 8.83701 14.6775 8.90077L14.6552 8.87931C15.5396 8.96343 16.4281 8.76852 17.1993 8.32116C17.9707 7.87379 18.5873 7.19575 18.9652 6.3795C19.343 5.56324 19.4637 4.64851 19.3108 3.76003C19.1579 2.87156 18.7388 2.05261 18.1108 1.41484C17.4827 0.777078 16.6761 0.351553 15.8011 0.196298C14.9261 0.0410433 14.0253 0.163616 13.2214 0.547299C12.4175 0.930983 11.7497 1.5571 11.3091 2.34027C10.8685 3.12343 10.6766 4.02553 10.7594 4.92354L10.7383 4.90208C10.8007 5.65299 10.701 6.4087 10.4461 7.11645C10.1912 7.82419 9.78731 8.46693 9.26249 8.9998C8.73769 9.53267 8.1047 9.94284 7.40768 10.2017C6.71066 10.4605 5.96641 10.5618 5.22688 10.4983L5.24801 10.5198C4.52541 10.454 3.79814 10.5745 3.1336 10.8701C2.46905 11.1656 1.88874 11.6267 1.44643 12.2107C1.00411 12.7946 0.714118 13.4824 0.603308 14.2104C0.492498 14.9385 0.564459 15.6832 0.812526 16.3754C1.06059 17.0676 1.47674 17.6851 2.0224 18.1706C2.56806 18.6562 3.22557 18.9939 3.93403 19.1527C4.64248 19.3115 5.37893 19.2861 6.07516 19.0789C6.77138 18.8718 7.40484 18.4895 7.91684 17.9676H7.91448Z" fill="#979797"/>
<path d="M44.2852 6.07617H47.7724V23.3073H44.2852V6.07617Z" fill="#979797"/>
<path d="M49.7482 17.4075C49.7433 16.1692 50.1005 14.9574 50.7745 13.9254C51.4484 12.8934 52.4089 12.0876 53.5342 11.6104C54.6595 11.133 55.8989 11.0056 57.0957 11.2442C58.2923 11.4827 59.3924 12.0764 60.2564 12.9503C61.1205 13.8241 61.7097 14.9387 61.9494 16.1529C62.1891 17.367 62.0686 18.6261 61.603 19.7706C61.1374 20.9151 60.3478 21.8936 59.3342 22.582C58.3205 23.2705 57.1284 23.638 55.909 23.638C55.0994 23.6474 54.2961 23.4929 53.5462 23.1834C52.7961 22.8739 52.1145 22.4157 51.5408 21.8356C50.9672 21.2555 50.5132 20.5652 50.2054 19.8048C49.8976 19.0445 49.7422 18.2296 49.7482 17.4075ZM58.5824 17.4075C58.5679 16.8738 58.3987 16.3563 58.096 15.9195C57.7934 15.4829 57.3707 15.1466 56.8809 14.9525C56.3909 14.7584 55.8556 14.7153 55.3416 14.8285C54.8278 14.9418 54.3581 15.2063 53.9915 15.589C53.6248 15.9718 53.3774 16.4558 53.2801 16.9805C53.1829 17.5053 53.2402 18.0475 53.4449 18.5394C53.6494 19.0313 53.9923 19.451 54.4306 19.7461C54.8689 20.0411 55.3831 20.1986 55.909 20.1985C56.2691 20.2083 56.6273 20.1422 56.961 20.0043C57.2947 19.8666 57.5967 19.66 57.8478 19.3978C58.0991 19.1355 58.294 18.8234 58.4205 18.4808C58.5469 18.1383 58.6021 17.7728 58.5824 17.4075Z" fill="#979797"/>
<path d="M75.9688 11.5054V22.7123C75.9688 26.6776 72.9231 28.3539 69.8315 28.3539C68.743 28.4366 67.6531 28.2133 66.6813 27.7086C65.7096 27.2038 64.8934 26.4371 64.3224 25.4925L67.2977 23.7459C67.5377 24.2383 67.9201 24.6446 68.3937 24.9102C68.8673 25.1759 69.4095 25.2883 69.9477 25.2326C70.2918 25.281 70.6421 25.2502 70.9728 25.1426C71.3035 25.035 71.6062 24.8531 71.8584 24.6107C72.1106 24.3683 72.306 24.0713 72.4299 23.7419C72.5538 23.4125 72.6032 23.0589 72.5743 22.7075V21.6286C72.166 22.1359 71.6462 22.539 71.0568 22.8054C70.4673 23.0719 69.8244 23.1943 69.1799 23.1629C67.6462 23.1139 66.1915 22.4607 65.1238 21.3417C64.056 20.2228 63.459 18.7259 63.459 17.1679C63.459 15.6099 64.056 14.1129 65.1238 12.9939C66.1915 11.8751 67.6462 11.2219 69.1799 11.1728C69.8244 11.1414 70.4673 11.2639 71.0568 11.5303C71.6462 11.7968 72.166 12.1999 72.5743 12.7072V11.503L75.9688 11.5054ZM72.5755 17.1697C72.599 16.599 72.4537 16.0343 72.1583 15.5482C71.863 15.0621 71.4312 14.6769 70.9184 14.442C70.4057 14.2073 69.8355 14.1337 69.2811 14.2307C68.7269 14.3278 68.2139 14.591 67.8081 14.9866C67.4024 15.3823 67.1226 15.8921 67.0047 16.4505C66.8868 17.009 66.9361 17.5905 67.1464 18.1203C67.3568 18.6499 67.7183 19.1036 68.1848 19.4229C68.6512 19.7422 69.2009 19.9124 69.7635 19.9118C70.1298 19.9377 70.4975 19.8854 70.8428 19.7584C71.1881 19.6313 71.5034 19.4322 71.7683 19.1739C72.0332 18.9155 72.2419 18.6037 72.3809 18.2585C72.5199 17.9134 72.5862 17.5425 72.5755 17.1697Z" fill="#979797"/>
<path d="M77.9435 17.4075C77.9387 16.1692 78.2958 14.9574 78.9699 13.9254C79.6438 12.8934 80.6043 12.0876 81.7296 11.6104C82.8549 11.133 84.0943 11.0056 85.291 11.2442C86.4877 11.4827 87.5877 12.0764 88.4518 12.9503C89.3159 13.8241 89.9051 14.9387 90.1448 16.1529C90.3846 17.367 90.264 18.6261 89.7984 19.7706C89.3328 20.9151 88.5433 21.8936 87.5296 22.582C86.5159 23.2705 85.3238 23.638 84.1043 23.638C83.2948 23.6474 82.4915 23.4929 81.7416 23.1834C80.9915 22.8739 80.3098 22.4157 79.7362 21.8356C79.1626 21.2555 78.7086 20.5652 78.4008 19.8048C78.093 19.0445 77.9376 18.2296 77.9435 17.4075ZM86.7779 17.4075C86.7633 16.8738 86.5941 16.3563 86.2914 15.9195C85.9888 15.4829 85.5661 15.1466 85.0762 14.9525C84.5863 14.7584 84.0509 14.7153 83.537 14.8285C83.0231 14.9418 82.5535 15.2063 82.1868 15.589C81.8202 15.9718 81.5727 16.4558 81.4755 16.9805C81.3783 17.5053 81.4356 18.0475 81.6402 18.5394C81.8448 19.0313 82.1877 19.451 82.6259 19.7461C83.0643 20.0411 83.5784 20.1986 84.1043 20.1985C84.4645 20.2083 84.8227 20.1422 85.1564 20.0043C85.4901 19.8666 85.7921 19.66 86.0432 19.3978C86.2944 19.1355 86.4894 18.8234 86.6158 18.4808C86.7422 18.1383 86.7974 17.7728 86.7779 17.4075Z" fill="#979797"/>
<path d="M91.8906 8.34328C91.8906 7.92309 92.0133 7.51234 92.2433 7.16296C92.4731 6.81358 92.7999 6.54127 93.1825 6.38047C93.5649 6.21967 93.9853 6.1776 94.3909 6.25957C94.7974 6.34155 95.1695 6.54389 95.4625 6.84101C95.7546 7.13813 95.9546 7.51669 96.0346 7.92881C96.1155 8.34092 96.0746 8.7681 95.9155 9.1563C95.7574 9.54454 95.4895 9.87631 95.1453 10.1097C94.8011 10.3432 94.3965 10.4678 93.9825 10.4678C93.43 10.4622 92.9008 10.2366 92.5095 9.83941C92.1183 9.44214 91.8961 8.90501 91.8906 8.34328ZM92.2429 11.5062H95.7314V23.3092H92.2382L92.2429 11.5062Z" fill="#979797"/>
<path d="M110.789 17.4063C110.829 18.1863 110.718 18.9667 110.46 19.7026C110.202 20.4386 109.803 21.1156 109.287 21.6946C108.771 22.2737 108.146 22.7433 107.452 23.0766C106.756 23.4099 106.001 23.6002 105.233 23.6368C104.587 23.6725 103.941 23.5619 103.342 23.3128C102.744 23.0637 102.206 22.6824 101.771 22.1966V28.0277H98.2832V11.5048H101.771V12.6135C102.207 12.128 102.744 11.7471 103.343 11.4982C103.941 11.2493 104.587 11.1388 105.233 11.1745C106.001 11.2109 106.756 11.4012 107.452 11.7344C108.147 12.0678 108.772 12.5376 109.288 13.1168C109.804 13.696 110.203 14.3731 110.461 15.1092C110.719 15.8454 110.83 16.626 110.789 17.4063ZM107.302 17.4063C107.289 16.8539 107.115 16.3178 106.802 15.8652C106.491 15.4127 106.053 15.0636 105.547 14.8618C105.04 14.6599 104.486 14.6144 103.955 14.7306C103.423 14.8469 102.936 15.12 102.556 15.5155C102.176 15.9111 101.919 16.4117 101.818 16.9547C101.718 17.4976 101.776 18.0588 101.987 18.568C102.199 19.077 102.554 19.5116 103.007 19.8171C103.461 20.1226 103.993 20.2855 104.537 20.2854C104.91 20.3024 105.283 20.2388 105.631 20.0992C105.979 19.9594 106.293 19.7467 106.555 19.4748C106.816 19.203 107.017 18.8782 107.146 18.5216C107.275 18.1651 107.328 17.7851 107.302 17.4063Z" fill="#979797"/>
<path d="M121.548 19.7656C121.548 22.4802 119.225 23.6368 116.715 23.6368C115.701 23.73 114.682 23.5122 113.791 23.0114C112.9 22.5107 112.177 21.7501 111.717 20.8278L114.737 19.0813C114.86 19.5075 115.122 19.8784 115.481 20.1318C115.841 20.3852 116.274 20.5059 116.71 20.4737C117.547 20.4737 117.965 20.2139 117.965 19.7429C117.965 18.4434 112.246 19.129 112.246 15.0456C112.246 12.4716 114.386 11.1745 116.803 11.1745C117.712 11.1453 118.612 11.3642 119.409 11.8083C120.206 12.2525 120.871 12.9056 121.335 13.6996L118.36 15.3281C118.229 15.019 118.012 14.7557 117.735 14.5711C117.458 14.3864 117.134 14.2885 116.803 14.2897C116.199 14.2897 115.826 14.5281 115.826 14.9503C115.83 16.2962 121.548 15.3985 121.548 19.7656Z" fill="#979797"/>
<path d="M134.289 11.5059V23.3088H130.802V22.1988C130.4 22.6886 129.889 23.0745 129.312 23.3249C128.734 23.5752 128.106 23.6829 127.479 23.639C125.131 23.639 123.135 21.9401 123.135 18.7509V11.5059H126.622V18.2324C126.593 18.5135 126.624 18.7976 126.714 19.0651C126.805 19.3326 126.951 19.577 127.143 19.7812C127.336 19.9855 127.569 20.1447 127.829 20.2478C128.088 20.3509 128.366 20.3955 128.644 20.3783C129.923 20.3783 130.805 19.6237 130.805 17.9475V11.5094L134.289 11.5059Z" fill="#979797"/>
<path d="M154.283 16.0607V23.307H150.796V16.3671C150.796 15.1868 150.237 14.4322 149.122 14.4322C147.96 14.4322 147.308 15.2583 147.308 16.6509V23.307H143.823V16.3671C143.823 15.1868 143.264 14.4322 142.148 14.4322C140.985 14.4322 140.335 15.2583 140.335 16.6509V23.307H136.848V11.5041H140.335V12.589C140.697 12.1077 141.171 11.726 141.716 11.4788C142.26 11.2316 142.856 11.1268 143.45 11.1738C144.047 11.1442 144.641 11.2721 145.174 11.5449C145.708 11.8178 146.163 12.2264 146.495 12.7309C146.881 12.2031 147.393 11.7834 147.983 11.5111C148.572 11.2389 149.22 11.1228 149.865 11.1738C152.534 11.1751 154.283 13.11 154.283 16.0607Z" fill="#979797"/>
<path d="M157.234 11.433C158.663 11.433 159.822 10.2566 159.822 8.80538C159.822 7.35417 158.663 6.17773 157.234 6.17773C155.806 6.17773 154.646 7.35417 154.646 8.80538C154.646 10.2566 155.806 11.433 157.234 11.433Z" fill="#979797"/>
</svg>
