<svg width="22" height="23" viewBox="0 0 22 23" fill="none" xmlns="http://www.w3.org/2000/svg">
<path d="M11 0.893555C16.8438 0.893555 21.6562 5.70605 21.6562 11.5498C21.6562 17.4365 16.8438 22.2061 11 22.2061C5.11328 22.2061 0.34375 17.4365 0.34375 11.5498C0.34375 5.70605 5.11328 0.893555 11 0.893555ZM18.0039 5.83496C17.832 6.09277 16.3281 8.02637 12.9336 9.40137C13.2773 10.0889 13.4922 10.6045 13.75 11.2061C16.7578 10.8193 19.7656 11.4209 20.0664 11.5068C20.0664 9.3584 19.293 7.38184 18.0039 5.83496ZM17.0156 4.76074C14.7812 2.78418 11.7305 2.05371 8.85156 2.74121C9.10938 3.08496 10.7422 5.31934 12.2461 8.06934C15.4688 6.86621 16.8438 5.01855 17.0156 4.76074ZM7.08984 3.34277C4.55469 4.5459 2.66406 6.90918 2.0625 9.70215C2.49219 9.74512 6.23047 9.74512 10.4844 8.62793C8.98047 5.9209 7.34766 3.68652 7.08984 3.34277ZM1.89062 11.5928C1.89062 13.9131 2.75 16.0615 4.21094 17.6514C5.67188 15.1592 8.67969 12.4951 11.9883 11.5498C11.7305 11.0342 11.5156 10.5186 11.2148 10.0029C6.70312 11.3779 2.27734 11.335 1.89062 11.292C1.89062 11.4209 1.89062 11.5068 1.89062 11.5928ZM5.37109 18.7686C8.07812 20.874 11.6016 21.2178 14.5234 19.9717C14.3945 19.1553 13.8789 16.3623 12.5898 13.0537C8.9375 14.2998 6.35938 16.835 5.37109 18.7686ZM16.0703 19.1123C18.0898 17.7373 19.5508 15.5459 19.9805 13.0107C19.6367 12.9248 17.1445 12.1943 14.3086 12.624C15.4688 15.9326 15.9844 18.5967 16.0703 19.1123Z" fill="black"/>
</svg>
