<svg width="20" height="21" viewBox="0 0 20 21" fill="none" xmlns="http://www.w3.org/2000/svg">
<path d="M17.5625 0.924805C18.6797 0.924805 19.625 1.87012 19.625 2.9873V18.1123C19.625 19.2725 18.6797 20.1748 17.5625 20.1748H11.6328V13.6436H14.125L14.5977 10.5498H11.6328V8.57324C11.6328 7.71387 12.0625 6.89746 13.3945 6.89746H14.7266V4.27637C14.7266 4.27637 13.5234 4.06152 12.3203 4.06152C9.91406 4.06152 8.32422 5.56543 8.32422 8.22949V10.5498H5.61719V13.6436H8.32422V20.1748H2.4375C1.27734 20.1748 0.375 19.2725 0.375 18.1123V2.9873C0.375 1.87012 1.27734 0.924805 2.4375 0.924805H17.5625Z" fill="black"/>
</svg>
