<svg width="22" height="19" viewBox="0 0 22 19" fill="none" xmlns="http://www.w3.org/2000/svg">
<path d="M19.7227 5.08105C19.7227 5.2959 19.7227 5.46777 19.7227 5.68262C19.7227 11.6553 15.2109 18.4873 6.91797 18.4873C4.33984 18.4873 1.97656 17.7568 0 16.4678C0.34375 16.5107 0.6875 16.5537 1.07422 16.5537C3.17969 16.5537 5.11328 15.8232 6.66016 14.6201C4.68359 14.5771 3.00781 13.2881 2.44922 11.4834C2.75 11.5264 3.00781 11.5693 3.30859 11.5693C3.69531 11.5693 4.125 11.4834 4.46875 11.3975C2.40625 10.9678 0.859375 9.16309 0.859375 6.97168V6.92871C1.46094 7.27246 2.19141 7.44434 2.92188 7.4873C1.67578 6.6709 0.902344 5.2959 0.902344 3.74902C0.902344 2.88965 1.11719 2.11621 1.50391 1.47168C3.73828 4.17871 7.08984 5.9834 10.8281 6.19824C10.7422 5.85449 10.6992 5.51074 10.6992 5.16699C10.6992 2.6748 12.7188 0.655273 15.2109 0.655273C16.5 0.655273 17.6602 1.1709 18.5195 2.07324C19.5078 1.8584 20.4961 1.47168 21.3555 0.956055C21.0117 2.03027 20.3242 2.88965 19.3789 3.44824C20.2812 3.3623 21.1836 3.10449 21.957 2.76074C21.3555 3.66309 20.582 4.43652 19.7227 5.08105Z" fill="black"/>
</svg>
